<?xml version="1.0" encoding="utf-8"?>
<!-- Generator: Adobe Illustrator 16.0.2, SVG Export Plug-In . SVG Version: 6.00 Build 0)  -->
<!DOCTYPE svg PUBLIC "-//W3C//DTD SVG 1.1//EN" "http://www.w3.org/Graphics/SVG/1.1/DTD/svg11.dtd">
<svg version="1.1" id="Layer_1" xmlns="http://www.w3.org/2000/svg" xmlns:xlink="http://www.w3.org/1999/xlink" x="0px" y="0px"
	 width="784.5px" height="556px" viewBox="0 0 784.5 556" enable-background="new 0 0 784.5 556" xml:space="preserve">
<path d="M101,385.5c12.328,8.336,28,12.5,47,12.5h263c15.664,0,28-3.672,37-11.023c8-6.68,14.828-17.617,20.5-33.32l67-188.656H303
	l-33.5,94h124c-5.336,13-8.672,21.086-10,22.75c-5.672,15-19.172,22.25-40.5,22.25H229c-16.672,0-25-5.32-25-15.961
	c0-4.656,9-32.423,27-83.306c5.432-15.352,10.286-28.926,14.565-40.733H136.962c-19.54,55.635-36.694,105.306-51.461,148.999
	c-4,11.336-6,21.336-6,30C79.5,361.671,86.672,375.836,101,385.5z"/>
<path d="M550.357,93l33.144-93h-347c-15.672,0-28,3.585-37,11.25c-7.672,6.672-14.336,17.546-20,32.875
	C173.516,60.872,167.697,77.079,162.043,93h240.168H550.357z"/>
<path d="M676,0l-70.917,199h0.306l-56.306,158L521,436c-2.672,7-8.172,13-16.5,18c-9.336,5.336-19.672,8-31,8H423H296h-56h-24H113
	H33L0,556h80h127h9h80h127h96.5c45.664,0,75.328-19.328,89-58l49.691-141l55.823-158h0.177L784.5,0H676z"/>
</svg>
